<?xml version="1.0"?>
<svg xmlns="http://www.w3.org/2000/svg" xmlns:xlink="http://www.w3.org/1999/xlink" xmlns:svgjs="http://svgjs.com/svgjs" version="1.1" width="512" height="512" x="0" y="0" viewBox="0 0 512 512" style="enable-background:new 0 0 512 512" xml:space="preserve" class=""><g><circle xmlns="http://www.w3.org/2000/svg" cx="256" cy="256" fill="#51097a" r="256" data-original="#4a7aff" style="" class=""/><path xmlns="http://www.w3.org/2000/svg" d="m512 256c0-13.534-1.05-26.822-3.073-39.788l-158.213-158.212-14.639 61.041-36.721-36.721-57.491 26.258-50.577-50.578-21.396 125.542-112.89 7.744 145.726 145.726-145.726 13.702 158.024 158.024c13.342 2.146 27.029 3.262 40.976 3.262 141.385 0 256-114.615 256-256z" fill="#322450" data-original="#0053bf" style="" class=""/><path xmlns="http://www.w3.org/2000/svg" d="m256 308c-28.673 0-52-23.327-52-52s23.327-52 52-52 52 23.327 52 52-23.327 52-52 52zm0-74c-12.131 0-22 9.869-22 22s9.869 22 22 22 22-9.869 22-22-9.869-22-22-22z" fill="#ffe000" data-original="#ffe000" style="" class=""/><path xmlns="http://www.w3.org/2000/svg" d="m256 204v30c12.131 0 22 9.869 22 22s-9.869 22-22 22v30c28.673 0 52-23.327 52-52s-23.327-52-52-52z" fill="#ffc200" data-original="#ffc200" style="" class=""/><path xmlns="http://www.w3.org/2000/svg" d="m407.539 308c-28.673 0-52-23.327-52-52s23.327-52 52-52 52 23.327 52 52-23.327 52-52 52zm0-74c-12.131 0-22 9.869-22 22s9.869 22 22 22 22-9.869 22-22-9.869-22-22-22z" fill="#ffc200" data-original="#ffc200" style="" class=""/><path xmlns="http://www.w3.org/2000/svg" d="m455 191.286v-30h-263.714v-103.286h-30v103.286h-104.286v30h104.286v129.428h-104.286v30h104.286v103.286h30v-103.286h263.714v-30h-263.714v-129.428z" fill="#ffffff" data-original="#ffffff" style="" class=""/><path xmlns="http://www.w3.org/2000/svg" d="m455 191.286v-30h-104.286v-103.286h-30v103.286h-64.714v30h64.714v129.428h-64.714v30h64.714v103.286h30v-103.286h104.286v-30h-104.286v-129.428z" fill="#f4f8ff" data-original="#e9edf5" style="" class=""/><path xmlns="http://www.w3.org/2000/svg" d="m299.354 82.32-21.212-21.214-22.142 22.142-22.142-22.142-21.212 21.214 22.141 22.141-22.141 22.141 21.212 21.214 22.142-22.142 22.142 22.142 21.212-21.214-22.141-22.141z" fill="#ffd3f8" data-original="#ff5f96" style="" class=""/><path xmlns="http://www.w3.org/2000/svg" d="m299.354 82.32-21.212-21.214-22.142 22.142v42.426l22.142 22.142 21.212-21.214-22.141-22.141z" fill="#fbbbf1" data-original="#d72878" style="" class=""/><path xmlns="http://www.w3.org/2000/svg" d="m299.355 385.398-21.213-21.213-22.142 22.141-22.141-22.141-21.213 21.213 22.141 22.141-22.141 22.142 21.213 21.213 22.141-22.142 22.142 22.142 21.212-21.213-22.141-22.141z" fill="#ffd3f8" data-original="#ff5f96" style="" class=""/><path xmlns="http://www.w3.org/2000/svg" d="m299.355 385.398-21.213-21.213-22.142 22.141v.001 42.425.001-.001l22.142 22.142 21.212-21.213-22.141-22.141z" fill="#fbbbf1" data-original="#d72878" style="" class=""/></g></svg>
